<svg width="140" height="139" viewBox="0 0 140 139" fill="none" xmlns="http://www.w3.org/2000/svg">
<path d="M110.507 58.5654C107.957 38.6304 90.7666 23.1667 70 23.1667C53.9233 23.1667 39.9583 32.4971 33.5825 47.2021C21.0525 50.9204 11.6666 62.6601 11.6666 75.2917C11.6666 91.2593 24.7508 104.25 40.8333 104.25V92.6667C31.185 92.6667 23.3333 84.8711 23.3333 75.2917C23.3333 67.166 30.3275 59.3299 38.9258 57.8298L42.315 57.2333L43.435 53.9957C47.5358 42.1228 57.7208 34.75 70 34.75C86.0825 34.75 99.1666 47.7407 99.1666 63.7084V69.5H105C111.434 69.5 116.667 74.6951 116.667 81.0834C116.667 87.4716 111.434 92.6667 105 92.6667H99.1666V104.25H105C117.868 104.25 128.333 93.8598 128.333 81.0834C128.326 75.8912 126.566 70.8513 123.335 66.7692C120.103 62.6871 115.586 59.7986 110.507 58.5654V58.5654Z" fill="#F1F5FF"/>
<path d="M87.5 98.4583C90.7217 98.4583 93.3334 95.8653 93.3334 92.6667C93.3334 89.468 90.7217 86.875 87.5 86.875C84.2784 86.875 81.6667 89.468 81.6667 92.6667C81.6667 95.8653 84.2784 98.4583 87.5 98.4583Z" fill="#3870FF"/>
<path d="M87.5 115.833C90.7217 115.833 93.3334 113.24 93.3334 110.042C93.3334 106.843 90.7217 104.25 87.5 104.25C84.2784 104.25 81.6667 106.843 81.6667 110.042C81.6667 113.24 84.2784 115.833 87.5 115.833Z" fill="#3870FF"/>
<path d="M70 110.042C73.2217 110.042 75.8334 107.449 75.8334 104.25C75.8334 101.051 73.2217 98.4583 70 98.4583C66.7784 98.4583 64.1667 101.051 64.1667 104.25C64.1667 107.449 66.7784 110.042 70 110.042Z" fill="#3870FF"/>
<path d="M70 127.417C73.2217 127.417 75.8334 124.824 75.8334 121.625C75.8334 118.426 73.2217 115.833 70 115.833C66.7784 115.833 64.1667 118.426 64.1667 121.625C64.1667 124.824 66.7784 127.417 70 127.417Z" fill="#3870FF"/>
<path d="M52.5 115.833C55.7216 115.833 58.3333 113.24 58.3333 110.042C58.3333 106.843 55.7216 104.25 52.5 104.25C49.2783 104.25 46.6666 106.843 46.6666 110.042C46.6666 113.24 49.2783 115.833 52.5 115.833Z" fill="#3870FF"/>
<path d="M52.5 98.4583C55.7216 98.4583 58.3333 95.8653 58.3333 92.6667C58.3333 89.468 55.7216 86.875 52.5 86.875C49.2783 86.875 46.6666 89.468 46.6666 92.6667C46.6666 95.8653 49.2783 98.4583 52.5 98.4583Z" fill="#3870FF"/>
</svg>
