<svg width="23" height="24" viewBox="0 0 23 24" fill="none" xmlns="http://www.w3.org/2000/svg">
<path d="M11.5 23.4124C17.8513 23.4124 23 18.1714 23 11.7062C23 5.24105 17.8513 0 11.5 0C5.14873 0 0 5.24105 0 11.7062C0 18.1714 5.14873 23.4124 11.5 23.4124Z" fill="#FF3A46"/>
<path d="M11.5004 14.0475C11.0839 14.0475 10.6836 13.8834 10.3834 13.5897C10.0831 13.2959 9.9061 12.8953 9.88951 12.4717L9.67703 7.01002C9.6685 6.78925 9.70385 6.569 9.78096 6.36248C9.85807 6.15595 9.97536 5.96741 10.1258 5.80813C10.2762 5.64886 10.4567 5.52215 10.6564 5.43559C10.8561 5.34903 11.0709 5.3044 11.2879 5.30439H11.7129C11.9299 5.3044 12.1447 5.34903 12.3444 5.43559C12.5441 5.52215 12.7246 5.64886 12.875 5.80813C13.0255 5.96741 13.1427 6.15595 13.2198 6.36248C13.297 6.569 13.3323 6.78925 13.3238 7.01002L13.1113 12.4717C13.0947 12.8953 12.9177 13.2959 12.6174 13.5897C12.3172 13.8834 11.9169 14.0475 11.5004 14.0475Z" fill="white"/>
<path d="M13.1097 16.4696C13.1097 15.5647 12.3891 14.8312 11.5002 14.8312C10.6112 14.8312 9.89062 15.5647 9.89062 16.4696C9.89062 17.3745 10.6112 18.108 11.5002 18.108C12.3891 18.108 13.1097 17.3745 13.1097 16.4696Z" fill="white"/>
</svg>
